<svg version="1.2" xmlns="http://www.w3.org/2000/svg" viewBox="0 0 324 324" width="324" height="324"><style>.s0{fill:#d26a22}</style><path fill-rule="evenodd" class="s0" d="m318.8 173.4l-145.4 145.4c-3.1 3-7.1 4.7-11.4 4.7c-4.3 0-8.3-1.7-11.4-4.7l-145.4-145.4c-6.2-6.3-6.2-16.5 0-22.8l145.4-145.4c3.1-3 7.1-4.7 11.4-4.7c4.3 0 8.3 1.7 11.4 4.7l145.4 145.4c6.2 6.3 6.2 16.5 0 22.8zm-235.6 56.8l43.6-43.6c-15.6-0.3-30.2-7.8-39.4-20.1c-1.9-2.7-1.9-6.3 0-9c9.2-12.3 23.8-19.8 39.4-20.1l-43.6-43.6l-67.4 67.4c-0.2 0.3-0.3 0.6-0.3 0.8c0 0.2 0.1 0.5 0.3 0.8zm225.3-68.2c0-0.2-0.1-0.5-0.3-0.8l-67.4-67.4l-9.5 9.5c-1.5 1.5-3.4 2.2-5.3 2.2c-1.9 0-3.8-0.7-5.3-2.2c-2.9-2.9-2.9-7.7 0-10.6l9.5-9.5l-67.5-67.4c-0.2-0.2-0.5-0.3-0.7-0.3c-0.2 0-0.5 0.1-0.8 0.3l-67.4 67.4l68.2 68.2l36.3-36.3c2.9-2.9 7.7-2.9 10.6 0c2.9 2.9 2.9 7.7 0 10.6l-11.7 11.7c15.5 0.3 30.2 7.7 39.4 20.1c1.9 2.7 1.9 6.3 0 9c-9.2 12.3-23.9 19.8-39.4 20.1l43.6 43.6l67.4-67.5c0.2-0.2 0.3-0.5 0.3-0.7zm-78.3 78.8l-68.2-68.2l-68.2 68.2l67.4 67.4c0.3 0.2 0.6 0.3 0.8 0.3c0.2 0 0.5-0.1 0.7-0.3zm-33.8-69.2c9.1 0 17.8-3.5 24.3-9.6c-6.5-6.1-15.2-9.6-24.3-9.6c-9.2 0-17.9 3.5-24.3 9.6c6.4 6.1 15.1 9.6 24.3 9.6zm-92.9-9.6c6.5 6.1 15.2 9.6 24.3 9.6c9.1 0 17.9-3.5 24.3-9.6c-6.4-6.1-15.2-9.6-24.3-9.6c-9.1 0-17.8 3.5-24.3 9.6z" /></svg>