<svg version="1.2" xmlns="http://www.w3.org/2000/svg" viewBox="0 0 512 468" width="512" height="468"><style>.s0{fill:#d26a22}</style><path fill-rule="evenodd" class="s0" d="m512 335.6c0 35.3-13.8 68.5-39 93.3c-24.8 24.4-57.4 37.8-92.1 37.8c-13.9 0-27.5-2.2-40.6-6.5c-11.5 4.8-24.1 7.5-37.3 7.5c-16.9 0-32.9-4.4-46.7-12.2c-18.9 11.2-38.1 15.3-58 10c-2.9-0.7-5.7-1.7-8.5-2.8c-13.3-5.6-28.6-5.6-42 0c-2.7 1.1-5.6 2.1-8.5 2.8c-30.6 8.1-65.4-7.1-92.9-40.7c-2.7-3.2-2.2-7.9 1-10.6c3.2-2.6 7.9-2.1 10.6 1.1c23.7 28.9 52.7 42.3 77.5 35.7c2.2-0.6 4.4-1.3 6.5-2.2c17-7.1 36.6-7.1 53.6 0c2.1 0.9 4.3 1.6 6.5 2.2c12.7 3.4 26.5 1.7 40.2-5c-21.5-17.6-35.3-44.4-35.3-74.3c0-52.9 43.1-96 96-96c53 0 96 43.1 96 96c0 32-15.8 60.5-39.9 77.9c6.6 1.3 13.3 2 20.1 2.1c31.4 0.4 60.9-11.5 83.2-33.4c22.3-22 34.6-51.4 34.6-82.7c0-31.4-12.3-60.7-34.6-82.7c-7.8-7.7-12-18.4-11.7-29.5c1.1-33.4-22-62.4-53.2-70q-1.8 15.7-5.7 31.2c5.7-0.6 11.3-1.5 16.8-2.9c4.1-1 8.1 1.5 9.1 5.5c1 4-1.4 8.1-5.4 9.1c-20.1 5-41.2 5-61.2 0c-4.1-1-6.5-5.1-5.5-9.1c1-4 5.1-6.5 9.1-5.5c7 1.8 14.3 2.8 21.5 3.2q4.5-16.6 6.5-33.5c-39.8-1-72.9 32-71.6 72c0.3 11.1-4 21.8-11.8 29.5c-2.9 2.9-7.7 2.9-10.6-0.1c-2.9-2.9-2.9-7.7 0.1-10.6c4.8-4.7 7.5-11.4 7.3-18.3c-0.2-5 0.1-10.1 0.8-15c-7.6-8.4-16.5-14-26.4-16.6c-13.3-3.5-28.1-1.4-42.6 6.2c-16.3 8.5-34 13.2-51.9 14.2q-1.2 17.4-0.1 34.8c5.6-0.4 11.1-1.2 16.5-2.6c4-1 8.1 1.5 9.1 5.5c1 4-1.5 8.1-5.5 9.1c-8.8 2.2-17.9 3.3-27 3.3h-0.2c-9.2 0-18.3-1.1-27.2-3.3c-4-1-6.5-5.1-5.5-9.1c1-4 5.1-6.5 9.1-5.5c5.2 1.3 10.4 2.1 15.7 2.6q-1.1-17.4 0-34.8c-17.6-1.1-35.1-5.8-51.2-14.2c-14.5-7.6-29.3-9.7-42.6-6.2c-20.5 5.4-36.6 23.6-45.4 51.2c-9.1 28.8-9 64 0.3 99.1c4.2 15.9 10.1 31 17.5 44.8c1.9 3.6 0.6 8.2-3.1 10.1c-3.6 2-8.2 0.7-10.1-3c-8-14.9-14.3-31-18.8-48c-10-37.9-10-76.1-0.1-107.5c10.4-32.7 30.2-54.4 55.9-61.2c17-4.5 35.4-1.9 53.3 7.4c14.4 7.5 30 11.7 45.7 12.6q1.4-12.3 3.9-24.4q0.6-2.6 1.2-5.1c-24.8 0.9-49.7-9.3-68.5-28.1c-20.2-20.2-30.6-48.1-27.7-74.6c0.7-6.2 5.7-11.2 11.9-11.9c26.5-2.9 54.4 7.5 74.6 27.7c11.7 11.7 20.1 25.9 24.5 40.8q5.2-12.5 11.7-24.5c1.9-3.7 6.5-5 10.1-3.1c3.7 2 5.1 6.6 3.1 10.2c-12.1 22.5-20.9 46.7-26.2 71.7q-2.2 10.5-3.5 21.1c15-1.1 29.9-5.3 43.6-12.4c17.9-9.3 36.3-11.9 53.3-7.4c9.9 2.6 18.9 7.4 26.9 14.3c12.3-33.4 45.1-57.1 82.7-55.6q0.6-13.5-0.3-27c-2.5-34.2-13.1-68.1-30.6-98c-2.1-3.6-0.9-8.2 2.7-10.3c3.6-2.1 8.1-0.8 10.2 2.7c7 11.9 13 24.4 17.8 37.3c3.1-6.5 7.4-12.7 12.8-18.1c12.7-12.7 29.6-19.5 46.5-18.6c7.3 0.3 13.1 6.1 13.5 13.4c0.8 16.9-6 33.8-18.7 46.5c-11.8 11.8-27.1 18.4-42.5 18.7c1.5 8.4 2.6 16.9 3.2 25.3q1.1 15 0.3 29.9c39 8.5 68.2 44.1 66.9 85.7c-0.2 6.8 2.4 13.5 7.2 18.2c25.2 24.8 39.1 58 39.1 93.4zm-341.3-193c-1.1-18.3-9.4-36.4-23.6-50.6c-16.7-16.7-39.5-25.4-61.1-23.5c-1.9 21.6 6.8 44.4 23.5 61.1c14.2 14.2 32.3 22.5 50.6 23.6l-33.8-33.7c-2.9-3-2.9-7.7 0-10.7c3-2.9 7.7-2.9 10.6 0zm256.6-88.7c9.5-9.5 14.7-22 14.3-34.4c-12.4-0.4-24.9 4.8-34.4 14.3c-9.6 9.6-14.7 22.1-14.3 34.4c12.3 0.4 24.8-4.8 34.4-14.3zm-43.2 317.9c0-44.7-36.4-81-81-81c-44.7 0-81 36.3-81 81c0 44.6 36.3 81 81 81c44.6 0 81-36.4 81-81zm-29.9-8.3l-46.8 46.9c-5.2 5.1-12.1 8-19.4 8c-7.4 0-14.3-2.9-19.5-8l-16.6-16.7c-8.8-8.7-8.8-23 0-31.8c8.7-8.6 23.2-8.7 31.8 0l4.3 4.3l34.1-34.2c8.7-8.7 22.5-9.1 31.4-1.1c9.3 8.5 9.8 23.7 0.7 32.6zm-10.8-21.5c-2.9-2.6-7.7-2.4-10.7 0.6l-37.3 37.4c-4 4-10.9 4-14.9-0.1l-7.4-7.4c-2.9-2.9-7.7-2.9-10.6 0c-2.9 2.9-2.9 7.7 0 10.6l16.6 16.6c2.4 2.4 5.5 3.7 8.9 3.7c3.3 0 6.4-1.3 8.8-3.7l46.8-46.8c3-3 2.9-8-0.2-10.9z" /></svg>