<svg version="1.2" xmlns="http://www.w3.org/2000/svg" viewBox="0 0 512 430" width="512" height="430"><style>.s0{fill:#d26a22}</style><path fill-rule="evenodd" class="s0" d="m336.2 176.1l-10.7 13c21.5 2.3 38.4 20.6 38.4 42.8v53.8c0 27.7-22.5 50.1-50.1 50.1h-82.9c-8.2 0-15.6-3.5-20.7-9.2c-3.8 3-8.6 4.7-13.8 4.7h-27.8c-11.3 0-20.5-9.2-20.5-20.5v-99.6c0-11.3 9.2-20.5 20.5-20.5h27.8c5.9 0 11.2 2.2 15.3 5.9c11.8-11.2 24.9-6.6 36.2-7.7l41.8-50.5c16.7-20.3 49.5-11.4 53 14.6c1.2 8.3-1.2 16.7-6.5 23.1zm-133.2 37.4c0-3.7-3-6.6-6.6-6.6h-27.8c-2.4 0-4.3 1.9-4.3 4.3v99.6c0 2.4 1.9 4.4 4.3 4.4h27.8c3.6 0 6.6-3 6.6-6.7zm123.7-58.2c-1.6-12.1-16.8-16-24.5-6.5l-42.5 51.3c-2.7 3.2-6.6 5-10.8 5h-18c-6.5 0-11.7 5.3-11.7 11.8v91.1c0 6.5 5.2 11.7 11.7 11.7h82.9c18.7 0 33.9-15.2 33.9-33.9v-53.8c0-14.8-12-26.9-26.8-26.9c-11.7 0-18.2-13.5-10.9-22.6c12.7-15.8 17.9-18.7 16.7-27.2z" /><path fill-rule="evenodd" class="s0" d="m113.7 139.5c-2.5-3.4-1.8-8.2 1.6-10.7c34.1-25.3 73.7-40.6 115.6-44.9v-25.4h-4.2c-16.1 0-29.2-13.1-29.2-29.2c0-16.2 13.1-29.3 29.2-29.3h58.6c16.1 0 29.2 13.1 29.2 29.3c0 16.1-13.1 29.2-29.2 29.2h-4.2v25.4c112.1 11.4 202.2 102.4 209.6 217.5c0.3 4.2-2.9 7.8-7.1 8.1q-0.2 0-0.4 0c-4 0-7.3-3.1-7.6-7.1c-7.9-121.5-115.6-217.3-244.7-203.2c-38.7 4.1-75.1 18.4-106.6 41.8c-3.3 2.5-8.1 1.8-10.6-1.5zm152.3-81h-20v24.4c5.8-0.2 14.1-0.2 20 0zm19.3-15.2c7.8 0 14.1-6.3 14.1-14c0-7.8-6.3-14.1-14.1-14.1h-58.6c-7.8 0-14.1 6.3-14.1 14.1c0 7.7 6.3 14 14.1 14c17.8 0 40.7 0 58.6 0z" /><path class="s0" d="m512 393.2v0.9c0 19.7-16 35.8-35.8 35.8h-387.4c-4.2 0-7.5-3.4-7.5-7.6c0-4.2 3.3-7.6 7.5-7.6h387.4c11.4 0 20.6-9.2 20.6-20.6v-0.9c0-11.4-9.2-20.6-20.5-20.6h-440.6c-11.3 0-20.5 9.2-20.5 20.6v0.9c0 11.4 9.2 20.6 20.6 20.6h22.7c4.2 0 7.6 3.4 7.6 7.6c0 4.2-3.4 7.6-7.6 7.6h-22.7c-19.8 0-35.8-16.1-35.8-35.8v-0.9c0-14.4 8.5-26.8 20.8-32.5v-44c0-63.6 25.1-123.1 70.7-167.5c3-3 7.8-2.9 10.7 0.1c2.9 3 2.8 7.8-0.1 10.7c-42.7 41.6-66.2 97.2-66.2 156.7v40.7h440.2v-25.2c0-4.2 3.3-7.6 7.5-7.6c4.2 0 7.6 3.4 7.6 7.6v28.5c12.3 5.7 20.8 18.1 20.8 32.5z" /></svg>