<svg version="1.2" xmlns="http://www.w3.org/2000/svg" viewBox="0 0 445 461" width="445" height="461"><style>.s0{fill:#27300f}</style><path class="s0" d="m444.6 239.5c-0.4 122.6-100 221.6-222.5 221.3c-122.5-0.1-221.7-99.4-221.9-221.9c0-12.4 1.1-24.7 3.1-37q0-0.1 0.1-0.3c1.6-9.2 10.5-15.4 19.8-13.8c9.2 1.7 15.4 10.6 13.8 19.8c-10.5 62.5 11.2 126 57.9 168.8c76 69.8 194.3 64.8 264.1-11.3c69.9-76 64.8-194.3-11.2-264.1c-76.1-69.9-194.3-64.8-264.2 11.2l75.6 25.2c9 2.9 13.8 12.6 10.8 21.6c-2.9 8.9-12.6 13.8-21.6 10.8l-102.4-34.1c-6.9-2.4-11.6-8.9-11.6-16.2v-102.4c0-9.5 7.6-17.1 17-17.1c9.5 0 17.1 7.6 17.1 17.1v62.3c41.5-40.1 97.1-62.5 154.8-62.3c122.5 0.3 221.6 99.9 221.3 222.4z" /></svg>